#!OML:ASF E:\Mandelcareful walks\Project 1\Capture day 1\Session 1\Subject1.ASF
:FULLY-SPECIFIED
:DEGREES
876
root 11.3224 15.0412 -2.66189 -154.162 -15.3655 166.332
lowerback 28.4912 -1.71761 2.4865
upperback 7.09126 -2.91998 -0.448289
thorax -7.87657 -1.96838 -0.856311
lowerneck -27.9344 -4.46682 -6.408
upperneck 6.19965 -4.35626 0.63342
head 6.34674 -2.456 0.614171
rclavicle 4.29375e-014 -2.94201e-014
rhumerus -10.604 2.93076 -70.3165
rradius 71.9494
rwrist -17.3598
rhand -19.6274 -21.8067
rfingers 7.12502
rthumb 6.69956 -51.6807
lclavicle 4.29375e-014 -2.94201e-014
lhumerus -8.84463 -35.9331 76.7012
lradius 73.9469
lwrist 23.8411
lhand -26.018 -19.0267
lfingers 7.12502
lthumb 0.528316 10.9523
rfemur -65.6628 -17.3856 14.6761
rtibia 66.0154
rfoot -21.1072 -6.33087
rtoes 6.91802
lfemur -42.7969 13.6099 -9.03879
ltibia 40.4605
lfoot -3.88579 15.3357
ltoes -7.07833
877
root 11.1871 15.0465 -2.65909 -154.214 -15.0544 166.44
lowerback 28.3968 -1.72523 2.49073
upperback 7.11744 -2.95206 -0.61135
thorax -7.81159 -1.98569 -1.03313
lowerneck -27.7244 -4.44363 -6.65142
upperneck 6.00127 -4.30045 0.937424
head 6.26107 -2.40607 0.765802
rclavicle -4.29375e-014 -3.10104e-014
rhumerus -10.4307 2.84382 -70.5244
rradius 71.7999
rwrist -17.5773
rhand -18.663 -21.4876
rfingers 7.12502
rthumb 7.63045 -51.33
lclavicle -4.29375e-014 -3.10104e-014
lhumerus -9.14638 -35.7396 76.9153
lradius 73.8867
lwrist 23.7618
lhand -25.8979 -19.1911
lfingers 7.12502
lthumb 0.644314 10.7877
rfemur -65.5201 -17.6226 14.3413
rtibia 65.8851
rfoot -20.864 -6.41282
rtoes 4.30053
lfemur -41.8852 12.0186 -7.77002
ltibia 39.0785
lfoot -3.06568 15.7612
ltoes -4.22448
878
root 11.0859 15.0435 -2.64427 -154.465 -14.4528 167.03
lowerback 28.9032 -1.42737 2.02675
upperback 7.00994 -2.6909 -0.554166
thorax -8.15059 -1.86001 -0.771174
lowerneck -27.4204 -4.34511 -6.96068
upperneck 5.73974 -4.1374 1.30112
head 6.1399 -2.30018 0.963067
rclavicle -1.90833e-014 4.77083e-015
rhumerus -10.35 2.8888 -70.7985
rradius 71.6849
rwrist -17.6655
rhand -18.9066 -21.4814
rfingers 7.12502
rthumb 7.39529 -51.3321
lclavicle -1.90833e-014 4.77083e-015
lhumerus -9.55436 -35.4333 77.1837
lradius 73.8937
lwrist 23.8154
lhand -26.1257 -19.3808
lfingers 7.12502
lthumb 0.424374 10.5985
rfemur -65.4301 -16.9844 14.3114
rtibia 65.7403
rfoot -20.6486 -6.63267
rtoes 2.73444
lfemur -41.1527 11.4515 -6.49411
ltibia 38.2606
lfoot -1.94639 15.8992
ltoes -4.67057
879
root 10.9558 15.0505 -2.62826 -154.566 -14.2884 167.482
lowerback 29.0573 -1.43379 2.12833
upperback 6.94503 -2.66407 -0.574325
thorax -8.3023 -1.84813 -0.854419
lowerneck -27.2111 -4.20015 -6.81937
upperneck 5.39858 -4.01399 1.16078
head 5.9868 -2.25449 0.916684
rclavicle -3.89618e-014 -1.51076e-014
rhumerus -10.343 2.80776 -71.1077
rradius 71.5592
rwrist -17.5421
rhand -18.7848 -21.047
rfingers 7.12502
rthumb 7.51291 -50.8936
lclavicle -3.89618e-014 -1.51076e-014
lhumerus -9.89571 -35.5103 77.3437
lradius 74.0938
lwrist 24.5597
lhand -27.3033 -19.1733
lfingers 7.12502
lthumb -0.71299 10.8053
rfemur -65.2713 -16.946 14.0652
rtibia 65.5816
rfoot -20.7092 -5.94561
rtoes 4.82413
lfemur -40.9166 10.999 -5.81236
ltibia 38.0144
lfoot -1.68678 15.5078
ltoes -7.9209
880
root 10.8328 15.0454 -2.60018 -154.616 -14.297 168.241
lowerback 29.2265 -1.42336 2.32163
upperback 6.82387 -2.55481 -0.39641
thorax -8.51518 -1.79406 -0.797017
lowerneck -27.1287 -4.1254 -6.6984
upperneck 5.15639 -3.95566 0.894014
head 5.88461 -2.25462 0.820038
rclavicle 1.27222e-014 7.95139e-016
rhumerus -10.372 2.9319 -71.1731
rradius 71.5164
rwrist -17.5245
rhand -19.2195 -21.4424
rfingers 7.12502
rthumb 7.09329 -51.3036
lclavicle 1.27222e-014 7.95139e-016
lhumerus -10.2295 -35.7888 77.5901
lradius 74.393
lwrist 25.8605
lhand -28.5808 -18.846
lfingers 7.12502
lthumb -1.94682 11.1249
rfemur -65.321 -16.7327 14.2014
rtibia 65.4339
rfoot -20.6989 -5.50159
rtoes 7.1237
lfemur -41.1094 11.2256 -5.18115
ltibia 38.3713
lfoot -2.1346 14.7885
ltoes -11.7386
881
root 10.6985 15.0398 -2.57744 -154.827 -13.7633 168.663
lowerback 29.5465 -1.08218 1.89178
upperback 6.79221 -2.24912 -0.401295
thorax -8.68472 -1.64816 -0.652562
lowerneck -27.1271 -4.10539 -6.47383
upperneck 5.15017 -3.98755 0.74163
head 5.87625 -2.27885 0.731305
rclavicle 7.95139e-015 -3.97569e-015
rhumerus -10.5793 2.93003 -71.1565
rradius 71.612
rwrist -17.6623
rhand -19.6015 -21.4949
rfingers 7.12502
rthumb 6.72449 -51.3681
lclavicle 7.95139e-015 -3.97569e-015
lhumerus -10.409 -35.9141 77.8768
lradius 74.3805
lwrist 25.9949
lhand -28.5287 -18.3325
lfingers 7.12502
lthumb -1.89654 11.6389
rfemur -65.2146 -16.5156 13.939
rtibia 65.2774
rfoot -20.5017 -5.24465
rtoes 6.84046
lfemur -40.9751 12.1462 -5.52672
ltibia 39.2094
lfoot -2.47943 14.3764
ltoes -17.7491
882
root 10.55 15.0378 -2.55455 -154.885 -13.4399 168.985
lowerback 29.5596 -0.902283 1.56151
upperback 6.81044 -2.12092 -0.355173
thorax -8.65678 -1.58531 -0.456022
lowerneck -27.2423 -4.02709 -6.54005
upperneck 5.14614 -3.85658 0.686786
head 5.88663 -2.22599 0.737768
rclavicle -9.54166e-015 -9.54166e-015
rhumerus -10.5442 2.93077 -71.1544
rradius 71.6085
rwrist -17.6514
rhand -19.2846 -21.4299
rfingers 7.12502
rthumb 7.03043 -51.2932
lclavicle -9.54166e-015 -9.54166e-015
lhumerus -10.4606 -35.4162 78.299
lradius 73.9854
lwrist 24.8466
lhand -27.7857 -18.2733
lfingers 7.12502
lthumb -1.17896 11.7031
rfemur -65.1835 -16.6805 13.7172
rtibia 65.0884
rfoot -20.2325 -5.02886
rtoes 5.50073
lfemur -41.2691 13.2076 -6.2884
ltibia 40.3195
lfoot -2.87563 14.2469
ltoes -23.4768
883
root 10.4014 15.0398 -2.52674 -154.991 -13.195 169.444
lowerback 29.9209 -0.600737 0.907284
upperback 6.63374 -1.86087 0.121204
thorax -8.99662 -1.44282 0.377496
lowerneck -27.3027 -3.97594 -7.02325
upperneck 5.25471 -3.60373 0.427109
head 5.92505 -2.14693 0.754761
rclavicle -7.15625e-015 -7.95139e-015
rhumerus -10.5839 3.18838 -70.6756
rradius 71.526
rwrist -17.5775
rhand -19.0026 -21.4903
rfingers 7.12502
rthumb 7.30269 -51.3443
lclavicle -7.15625e-015 -7.95139e-015
lhumerus -10.8672 -34.8201 79.3831
lradius 73.5729
lwrist 23.703
lhand -27.0582 -18.8653
lfingers 7.12502
lthumb -0.476305 11.1139
rfemur -65.1186 -16.8272 13.6724
rtibia 64.8531
rfoot -19.8679 -4.90792
rtoes 3.71068
lfemur -41.7943 14.4725 -7.02324
ltibia 41.4998
lfoot -3.71118 13.9821
ltoes -26.184
884
root 10.2494 15.0406 -2.49094 -155.061 -13.1086 169.97
lowerback 30.142 -0.546228 0.644085
upperback 6.52211 -1.83336 0.382058
thorax -9.21638 -1.41878 0.823072
lowerneck -27.3901 -3.77207 -7.17446
upperneck 5.34614 -3.25637 0.221143
head 5.95484 -2.00643 0.751143
rclavicle 2.14687e-014 -9.54166e-015
rhumerus -10.6496 3.68981 -70.5326
rradius 71.5297
rwrist -17.5823
rhand -19.5932 -21.6569
rfingers 7.12502
rthumb 6.73256 -51.5299
lclavicle 2.14687e-014 -9.54166e-015
lhumerus -11.2062 -34.3701 79.8815
lradius 73.4101
lwrist 23.2311
lhand -26.4208 -19.0529
lfingers 7.12502
lthumb 0.139343 10.9268
rfemur -65.1041 -17.0392 13.7252
rtibia 64.5879
rfoot -19.4819 -4.74003
rtoes 1.93349
lfemur -42.6002 15.6501 -7.68075
ltibia 42.6972
lfoot -4.99428 13.7262
ltoes -25.245
885
root 10.0955 15.0388 -2.44782 -155.033 -13.2356 170.513
lowerback 30.2416 -0.570535 0.868828
upperback 6.43123 -1.78091 0.345693
thorax -9.3748 -1.39219 0.637552
lowerneck -27.4154 -3.55524 -6.85307
upperneck 5.39463 -3.05272 0.134124
head 5.96285 -1.9041 0.698827
rclavicle 2.38542e-015 -3.49861e-014
rhumerus -11.051 3.76775 -70.7255
rradius 71.6977
rwrist -17.6675
rhand -20.1074 -21.8325
rfingers 7.12502
rthumb 6.23615 -51.7207
lclavicle 2.38542e-015 -3.49861e-014
lhumerus -11.2455 -34.615 79.825
lradius 73.3317
lwrist 23.1783
lhand -25.8904 -19.125
lfingers 7.12502
lthumb 0.651622 10.8537
rfemur -65.1373 -17.304 13.7898
rtibia 64.276
rfoot -19.1477 -4.59384
rtoes 0.672326
lfemur -43.6837 16.6112 -8.27308
ltibia 43.911
lfoot -6.64312 13.5354
ltoes -21.1027
886
root 9.94087 15.0385 -2.40309 -154.987 -13.3647 170.845
lowerback 30.1299 -0.652669 1.24952
upperback 6.51134 -1.81015 0.0512078
thorax -9.2469 -1.41953 0.0907432
lowerneck -27.4827 -3.3698 -6.54542
upperneck 5.31605 -2.907 0.146684
head 5.93831 -1.82269 0.674483
rclavicle 0 -7.95139e-016
rhumerus -11.1929 3.30619 -71.312
rradius 71.704
rwrist -17.6978
rhand -20.0537 -21.8227
rfingers 7.12502
rthumb 6.28798 -51.7094
lclavicle 0 -7.95139e-016
lhumerus -10.8835 -35.1666 79.2352
lradius 73.3242
lwrist 23.2943
lhand -25.6521 -19.3253
lfingers 7.12502
lthumb 0.881801 10.6526
rfemur -65.0697 -17.6063 13.5632
rtibia 63.9315
rfoot -18.8001 -4.44876
rtoes -0.22622
lfemur -44.8063 17.5484 -9.17623
ltibia 45.1478
lfoot -7.9526 13.1963
ltoes -17.955
